<svg width="75" height="75" viewBox="0 0 75 75" fill="none" xmlns="http://www.w3.org/2000/svg">
<g clip-path="url(#clip0)">
<path d="M66.1556 22.1167H66.054H41.3683C55.1841 15.3189 56.3016 11.0202 55.7937 8.62098C54.6762 4.72221 50.1048 1.72316 45.8381 3.32266C40.2508 5.42199 38.727 13.6194 37.2032 19.5175C35.273 13.5194 33.4444 5.92183 29.0762 2.02307C27.8571 0.923414 26.0286 -0.176239 23.2857 0.0236982C19.2222 0.423572 13.4317 5.32202 15.8698 10.8203C18.1048 16.1186 25.5206 19.5175 30.4984 22.2167H7.84444C6.21905 22.2167 5 23.5163 5 25.0158V36.2123C5 37.8118 6.32063 39.0114 7.84444 39.0114H8.14921V75H66.054V39.0114H66.1556C67.781 39.0114 69 37.7118 69 36.2123V25.0158C69 23.4163 67.6794 22.1167 66.1556 22.1167ZM47.4635 5.82187C49.5968 5.52196 52.4413 7.12146 52.746 9.02085C53.1524 11.72 49.3937 14.2192 47.6667 15.3189C45.127 17.0183 42.6889 17.918 40.3524 19.3176C41.1651 15.6188 42.8921 6.42168 47.4635 5.82187ZM24.5048 15.6188C22.2698 14.1192 18.0032 11.2202 18.1048 7.9212C18.2063 4.32234 23.8952 1.42326 26.9429 4.1224C30.8032 7.42136 32.6317 15.1189 34.054 20.5172C30.8032 18.9177 27.7556 17.7181 24.5048 15.6188ZM30.4984 72.0009H11.0952V39.0114H30.4984V72.0009ZM30.4984 36.0123H8.04762V25.1158H30.4984V36.0123ZM40.6571 72.0009H33.4444V25.1158H40.6571V72.0009ZM63.0064 72.0009H43.7048V39.0114H63.1079V72.0009H63.0064ZM65.9524 36.0123H43.7048V25.1158H65.9524V36.0123Z" fill="#81B3D2"/>
</g>
<defs>
<clipPath id="clip0">
<rect width="64" height="75" fill="white" transform="translate(5)"/>
</clipPath>
</defs>
</svg>
