<svg width="75" height="75" viewBox="0 0 75 75" fill="none" xmlns="http://www.w3.org/2000/svg">
<path d="M29.6185 65.9389H45.6827V42.1709H29.6185V65.9389ZM42.7711 63.0549H32.5301V45.0549H42.6707V63.0549H42.7711Z" fill="#81B3D2"/>
<path d="M72.8916 40.1823L75 38.0939L65.0602 28.2486V1.39779H51.2048V14.5249L37.4498 1L0 38.1934L2.10843 40.2818L9.93976 32.5249V70.116H6.0241V73H70.1807V70.116H65.0602V32.4254L72.8916 40.1823ZM54.1165 4.38122H62.0482V25.3646L54.1165 17.5083V4.38122ZM62.1486 70.0166H12.9518V29.5414L37.4498 5.1768L62.0482 29.5414V70.0166H62.1486Z" fill="#81B3D2"/>
<path d="M29.9197 28.0491C29.9197 32.3253 33.4338 35.806 37.6507 35.806C41.9679 35.806 45.482 32.3253 45.482 28.0491C45.482 23.7728 41.9679 20.3916 37.6507 20.3916C33.3334 20.3916 29.9197 23.7728 29.9197 28.0491ZM37.6507 23.0767C40.3615 23.0767 42.6707 25.2645 42.6707 28.0491C42.6707 30.7341 40.4619 33.0214 37.6507 33.0214C34.9398 33.0214 32.6306 30.8336 32.6306 28.0491C32.6306 25.364 34.9398 23.0767 37.6507 23.0767Z" fill="#81B3D2"/>
<path d="M19.9799 42.1709H16.9679V46.0493H19.9799V42.1709Z" fill="#81B3D2"/>
<path d="M25.9036 42.1709H22.8915V46.0493H25.9036V42.1709Z" fill="#81B3D2"/>
<path d="M19.9799 48.1387H16.9679V52.0171H19.9799V48.1387Z" fill="#81B3D2"/>
<path d="M25.9036 48.1387H22.8915V52.0171H25.9036V48.1387Z" fill="#81B3D2"/>
<path d="M52.008 42.1709H48.996V46.0493H52.008V42.1709Z" fill="#81B3D2"/>
<path d="M58.0321 42.1709H55.0201V46.0493H58.0321V42.1709Z" fill="#81B3D2"/>
<path d="M52.008 48.1387H48.996V52.0171H52.008V48.1387Z" fill="#81B3D2"/>
<path d="M58.0321 48.1387H55.0201V52.0171H58.0321V48.1387Z" fill="#81B3D2"/>
</svg>
