<svg width="75" height="75" viewBox="0 0 75 75" fill="none" xmlns="http://www.w3.org/2000/svg">
<g clip-path="url(#clip0)">
<path d="M70.7677 48.7359H4.23228C1.87008 48.7359 0 50.681 0 52.9178V56.3216C0 58.5584 1.87008 60.4061 4.23228 60.4061H5.21654V61.3786C5.21654 66.7275 9.64567 71.0066 14.9606 71.0066H60.0394C65.4528 71.0066 69.7835 66.6302 69.7835 61.3786V60.4061H70.7677C73.0315 60.4061 75 58.5584 75 56.2243V52.8205C75 50.681 73.1299 48.7359 70.7677 48.7359ZM66.9291 61.3786C66.9291 65.0743 63.878 68.0891 60.1378 68.0891H14.8622C11.122 68.0891 8.07087 65.0743 8.07087 61.3786V60.4061H66.9291V61.3786ZM72.0473 56.2243C72.0473 56.9051 71.4567 57.4886 70.7677 57.4886H4.23228C3.54331 57.4886 2.95276 56.9051 2.95276 56.2243V52.8205C2.95276 52.2369 3.54331 51.6535 4.23228 51.6535H70.8661C71.5551 51.6535 72.1457 52.2369 72.1457 52.9178V56.2243H72.0473Z" fill="#81B3D2"/>
<path d="M15.9449 40.8582L21.2599 44.7482L26.6733 40.8582L32.0867 44.7482L37.5 40.8582L42.815 44.7482L48.2283 40.8582L53.6418 44.7482L59.0552 40.8582L64.4685 44.7482L70.6693 40.1773L68.9961 37.8434L64.4685 41.0527L59.0552 37.1625L53.6418 41.0527L48.2283 37.1625L42.815 41.0527L37.5 37.1625L32.0867 41.0527L26.6733 37.1625L21.2599 41.0527L15.9449 37.1625L10.5316 41.0527L6.00398 37.8434L4.23233 40.1773L10.5316 44.7482L15.9449 40.8582Z" fill="#81B3D2"/>
<path d="M69.7833 34.2453C69.7833 33.6618 69.8818 31.7168 69.7833 31.3278C69.0944 16.1565 54.9212 4 37.4999 4C20.0787 4 5.80701 16.1565 5.11804 31.3278C5.11804 31.7168 5.11804 33.6618 5.11804 34.2453H69.7833ZM37.4999 6.91756C53.2479 6.91756 66.2401 17.8098 66.8306 31.3278H8.0708C8.75977 17.8098 21.7519 6.91756 37.4999 6.91756Z" fill="#81B3D2"/>
<path d="M37.5 20.5328C38.5872 20.5328 39.4686 19.662 39.4686 18.5878C39.4686 17.5135 38.5872 16.6427 37.5 16.6427C36.4128 16.6427 35.5314 17.5135 35.5314 18.5878C35.5314 19.662 36.4128 20.5328 37.5 20.5328Z" fill="#81B3D2"/>
<path d="M29.626 15.7671C30.7132 15.7671 31.5944 14.8963 31.5944 13.8221C31.5944 12.7479 30.7132 11.877 29.626 11.877C28.5388 11.877 27.6574 12.7479 27.6574 13.8221C27.6574 14.8963 28.5388 15.7671 29.626 15.7671Z" fill="#81B3D2"/>
<path d="M45.374 15.7671C46.4612 15.7671 47.3426 14.8963 47.3426 13.8221C47.3426 12.7479 46.4612 11.877 45.374 11.877C44.2868 11.877 43.4056 12.7479 43.4056 13.8221C43.4056 14.8963 44.2868 15.7671 45.374 15.7671Z" fill="#81B3D2"/>
</g>
<defs>
<clipPath id="clip0">
<rect width="75" height="67.1053" fill="white" transform="translate(0 4)"/>
</clipPath>
</defs>
</svg>
